<svg xmlns="http://www.w3.org/2000/svg" version="1.0" width="1536.000000pt" height="646.000000pt" viewBox="0 0 1536.000000 646.000000" preserveAspectRatio="xMidYMid meet">
<metadata>
Created by potrace 1.16, written by Peter Selinger 2001-2019
</metadata>
<g transform="translate(0.000000,646.000000) scale(0.100000,-0.100000)" fill="#000000" stroke="none">
<path d="M9224 6444 c-57 -20 -110 -68 -206 -185 -76 -94 -174 -179 -205 -179 -21 0 -15 29 14 67 25 32 26 35 6 25 -32 -18 -97 -95 -163 -196 l-60 -91 0 40 c0 100 101 228 295 372 l30 23 -35 -12 c-96 -31 -203 -134 -309 -293 -77 -117 -89 -120 -77 -18 12 100 73 225 169 344 60 75 29 62 -54 -22 -86 -88 -134 -197 -174 -392 -5 -22 -10 -27 -23 -22 -9 4 -47 10 -84 12 l-68 6 0 54 c0 60 13 93 35 93 17 0 20 16 5 25 -15 9 -12 80 4 119 7 18 29 50 47 71 22 25 27 35 14 28 -57 -31 -110 -134 -149 -287 -14 -54 -27 -101 -30 -103 -3 -3 -13 -3 -22 1 -15 6 -15 9 5 30 13 13 21 32 19 43 -3 15 -11 11 -49 -25 -47 -43 -69 -49 -113 -32 -32 12 -33 24 -3 64 45 60 40 61 -20 4 -62 -58 -106 -79 -125 -60 -15 15 1 51 49 109 20 24 33 46 29 50 -9 10 -53 -34 -103 -104 l-45 -63 -51 0 c-114 0 -339 -47 -619 -129 -38 -11 -68 -16 -68 -11 0 5 5 12 10 15 6 3 10 11 10 17 0 6 -10 2 -22 -9 -42 -37 -102 -73 -125 -73 -28 0 -38 17 -23 35 10 12 9 15 -3 15 -9 0 -35 -23 -59 -51 -48 -57 -74 -70 -203 -104 -120 -31 -289 -51 -585 -70 -446 -29 -559 -51 -935 -185 -326 -116 -505 -154 -629 -136 -44 7 -46 9 -46 39 0 41 33 95 66 107 14 6 44 11 66 13 39 2 40 3 43 42 2 22 9 58 17 79 12 37 18 41 103 73 49 19 157 52 241 73 212 55 373 77 769 106 104 7 97 14 -50 44 -224 47 -499 50 -1035 10 -151 -11 -378 -27 -505 -35 -126 -8 -372 -29 -545 -46 -666 -64 -851 -72 -985 -44 -165 35 -315 143 -385 277 -31 61 -38 68 -78 79 -43 12 -67 11 -258 -14 l-92 -12 -40 -50 c-73 -92 -131 -133 -222 -158 -89 -25 -150 -29 -245 -16 -185 24 -369 93 -698 262 -186 96 -199 101 -212 84 -23 -32 -35 -138 -35 -315 l0 -172 -40 -66 c-21 -35 -83 -121 -136 -190 -114 -149 -167 -234 -200 -321 -21 -55 -24 -81 -24 -193 0 -86 4 -138 13 -153 6 -12 13 -24 14 -26 1 -2 44 19 95 47 169 91 271 111 388 76 71 -21 149 -100 214 -217 56 -101 57 -133 5 -192 -38 -42 -91 -58 -176 -53 -35 2 -63 1 -63 -3 0 -11 40 -34 93 -54 50 -19 97 -50 97 -65 0 -5 -16 -14 -36 -20 -50 -17 -140 -6 -218 25 -34 14 -65 25 -69 25 -14 0 23 -91 57 -143 74 -111 198 -203 341 -254 72 -25 93 -28 210 -27 126 0 137 2 385 64 l255 64 150 1 c174 0 184 -3 361 -108 184 -109 242 -133 495 -207 571 -166 711 -232 885 -411 95 -99 156 -196 221 -353 128 -308 161 -346 523 -597 196 -135 246 -184 365 -354 l89 -128 -3 -351 c-4 -623 -27 -802 -124 -991 -39 -76 -72 -109 -187 -188 -118 -81 -156 -127 -175 -211 -12 -51 -12 -57 3 -65 40 -20 134 -35 222 -35 109 0 193 21 239 60 36 30 55 25 40 -13 -23 -62 57 -70 145 -14 36 22 62 31 93 31 39 0 46 4 74 43 44 60 123 226 159 335 17 50 64 219 105 375 74 282 110 399 160 512 l27 60 39 -45 c77 -88 139 -231 195 -444 18 -71 37 -132 41 -136 4 -4 69 -56 143 -116 74 -59 212 -173 305 -253 94 -80 177 -151 185 -158 14 -11 15 -5 12 50 -2 37 5 108 17 177 25 137 26 178 5 228 -14 35 -14 38 7 54 11 10 30 18 40 18 24 0 24 2 -1 50 -23 44 -26 80 -8 98 9 9 8 12 -3 16 -8 2 -38 12 -67 21 -34 11 -71 34 -105 65 -114 104 -145 208 -202 680 -9 74 -28 177 -41 229 -13 53 -24 99 -24 102 0 4 42 25 93 47 318 140 554 206 767 218 l105 5 64 -132 c116 -236 271 -456 616 -869 l187 -225 -4 -120 c-6 -147 -27 -207 -123 -357 -36 -57 -79 -130 -96 -163 -29 -56 -38 -64 -132 -120 -55 -33 -134 -92 -176 -131 l-75 -71 139 -6 c77 -3 217 -2 310 3 94 5 238 12 320 16 83 4 156 11 162 16 7 6 15 25 19 44 3 19 9 34 12 34 2 0 36 -9 74 -20 44 -14 89 -20 125 -18 56 3 57 3 65 38 4 19 17 109 28 200 25 208 27 216 108 384 106 222 101 259 -63 482 -96 131 -110 155 -155 270 -81 202 -114 415 -108 697 3 164 5 180 23 193 38 28 121 45 240 51 141 6 125 -3 271 166 116 135 194 251 333 498 218 387 326 532 477 640 455 326 1451 528 2599 529 635 0 1150 -42 2475 -205 289 -35 556 -67 594 -71 l70 -7 -22 31 c-30 41 -149 151 -237 217 -108 81 -243 160 -410 241 -181 87 -287 129 -730 289 -435 157 -515 188 -515 198 0 4 19 17 43 27 31 14 34 17 12 12 -57 -14 -131 -2 -358 55 -224 57 -227 58 -205 75 13 10 40 23 61 30 21 6 36 16 34 22 -7 20 -42 17 -100 -9 -66 -29 -130 -34 -121 -10 4 8 32 22 63 31 62 18 81 30 81 50 0 20 -16 18 -140 -21 -135 -42 -194 -45 -268 -10 -33 15 -51 29 -46 36 15 25 76 39 165 39 91 0 92 0 74 20 -22 24 -80 41 -114 34 -14 -4 -62 -17 -106 -29 -124 -36 -164 -39 -207 -15 -22 12 -83 26 -145 35 -112 16 -173 31 -173 44 0 12 42 47 78 66 46 23 149 42 262 50 52 3 106 9 120 12 l25 5 -25 10 c-41 17 -240 22 -330 9 -106 -16 -197 -44 -244 -76 -20 -14 -39 -25 -42 -25 -11 0 31 66 69 107 57 62 109 90 223 118 54 14 100 27 102 30 12 12 -125 4 -188 -11 -37 -8 -88 -14 -112 -12 -40 3 -37 4 52 27 52 13 102 27 110 32 31 17 -96 9 -165 -11 -76 -22 -136 -26 -165 -10 -15 8 -24 3 -50 -29 -19 -25 -45 -44 -68 -51 -20 -6 -43 -13 -51 -16 -10 -3 -10 -8 -2 -18 14 -17 -17 -59 -60 -81 -33 -18 -37 -11 -11 18 18 21 17 21 -30 2 -47 -19 -3 63 87 163 87 96 144 116 367 126 70 4 137 10 150 15 23 9 22 9 -7 17 -16 5 -88 8 -160 8 -110 -2 -148 -7 -245 -32 -63 -17 -155 -46 -205 -65 -85 -34 -88 -36 -50 -37 53 -1 75 -14 47 -29 -11 -6 -46 -33 -78 -61 -86 -74 -152 -104 -209 -96 -24 4 -47 11 -50 15 -5 9 82 81 145 120 27 18 30 21 10 15 -14 -4 -31 -9 -37 -11 -23 -9 -13 17 21 54 42 46 125 98 209 129 l62 23 -50 0 c-78 1 -268 -18 -395 -39 -223 -38 -399 -97 -508 -171 -32 -21 -59 -33 -60 -28 -7 17 48 78 94 105 49 29 51 40 7 30 -16 -4 -57 -37 -97 -79 -74 -78 -81 -68 -23 32 62 105 157 183 272 223 l50 17 -41 1 c-106 1 -260 -121 -339 -270 -37 -68 -40 -72 -43 -46 -8 67 7 96 95 187 69 72 82 89 64 89 -12 0 -40 -17 -64 -38 -23 -20 -53 -46 -66 -57 l-24 -20 12 22 c6 13 21 28 32 34 25 13 19 23 -9 15 -10 -4 -34 -28 -52 -54 -18 -26 -43 -57 -54 -70 l-21 -24 -5 23 c-8 31 -28 35 -39 7 -8 -21 -9 -20 -16 15 -11 56 0 115 27 144 30 33 94 63 136 63 17 0 32 4 32 9 0 19 -40 22 -97 7 -32 -9 -59 -12 -61 -8 -1 5 -73 -26 -160 -69 -86 -42 -158 -76 -160 -74 -8 8 43 90 78 125 21 21 91 73 154 114 158 104 161 113 28 71 -170 -54 -291 -166 -399 -370 l-42 -80 -1 41 c0 61 35 187 72 257 33 61 99 137 148 169 l25 17 -29 0 c-23 1 -45 -14 -102 -69 -39 -38 -77 -70 -82 -70 -20 0 -23 40 -6 76 10 21 42 61 71 91 29 29 53 55 53 58 0 14 -27 1 -61 -30 -63 -56 -89 -43 -48 24 11 18 17 36 14 40 -13 13 -43 -40 -79 -143 -38 -105 -39 -106 -84 -126 -29 -13 -74 -50 -124 -102 l-78 -82 0 37 c0 75 54 143 180 228 l65 44 -37 3 c-30 3 -49 -5 -97 -38 -33 -22 -72 -45 -86 -50 -23 -9 -26 -8 -21 7 3 10 13 45 22 78 24 85 47 136 78 169 19 19 24 32 17 39 -17 17 -39 0 -90 -77 -28 -41 -60 -77 -71 -81 -18 -6 -20 -12 -13 -43 18 -92 -1 -143 -119 -309 -99 -140 -102 -135 -23 37 83 182 83 191 0 64 -31 -48 -58 -84 -61 -81 -13 13 11 72 63 154 66 106 71 116 43 83 -69 -81 -133 -193 -166 -290 l-19 -55 -3 70 c-4 92 2 120 43 203 25 50 56 89 105 136 53 50 65 66 50 66 -31 0 -97 -66 -142 -142 -22 -37 -44 -68 -49 -68 -15 0 -10 54 15 151 22 85 23 92 6 71 -28 -34 -60 -126 -76 -217 -8 -44 -20 -85 -27 -91 -6 -7 -45 -26 -86 -43 l-73 -31 7 37 c20 109 92 240 180 327 54 53 178 126 214 126 9 0 23 5 31 10 24 16 -79 11 -126 -6z m856 -349 c0 -16 -76 -95 -91 -95 -22 0 4 47 45 82 36 31 46 34 46 13z m-1229 -98 c-38 -109 -53 -128 -118 -142 -32 -6 -33 -6 -33 28 0 49 36 95 105 134 33 18 61 33 62 33 1 0 -6 -24 -16 -53z m849 38 c0 -3 -7 -16 -15 -28 -8 -13 -23 -58 -34 -102 -31 -123 -77 -169 -75 -74 3 94 60 209 105 209 10 0 19 -2 19 -5z m-605 -65 c4 -6 -1 -43 -11 -83 l-18 -72 -70 3 c-45 3 -82 11 -99 21 l-28 18 33 28 c30 25 162 95 180 95 4 0 10 -5 13 -10z m625 -121 c-7 -15 -20 -35 -31 -45 -18 -16 -19 -16 -19 3 0 16 30 117 52 173 1 3 3 -19 5 -49 2 -30 -1 -67 -7 -82z m520 -14 c0 -150 2 -148 -71 -122 -31 11 -35 15 -28 38 4 15 0 42 -8 65 -26 71 -26 72 3 99 26 24 29 25 40 10 11 -15 14 -14 25 7 10 19 27 37 37 38 1 0 2 -61 2 -135z m1065 25 c3 -5 -1 -10 -10 -10 -9 0 -37 -19 -63 -43 -79 -73 -102 -87 -141 -87 -36 0 -95 29 -61 30 8 0 55 27 103 60 71 48 96 60 127 60 21 0 42 -4 45 -10z m-1217 -72 l-3 -63 -42 -3 c-40 -3 -43 -2 -43 23 0 49 40 104 78 105 10 0 12 -16 10 -62z m932 22 c0 -5 -8 -10 -17 -10 -26 0 -97 -81 -110 -126 l-12 -39 -78 4 c-43 2 -88 7 -101 12 -21 8 -22 10 -8 36 40 77 148 132 259 133 38 0 67 -4 67 -10z m100 -124 c0 -28 -13 -47 -41 -61 -35 -19 -89 -19 -113 -2 -16 12 -13 16 40 39 98 43 114 46 114 24z m789 -35 c-6 -16 -39 -56 -73 -88 -35 -32 -65 -63 -67 -70 -8 -22 -179 24 -179 48 0 4 31 28 69 54 79 54 157 84 218 85 l42 0 -10 -29z m100 -110 c11 -7 7 -12 -15 -24 -16 -8 -38 -24 -48 -36 -21 -23 -51 -28 -61 -10 -7 11 15 31 69 62 35 20 36 20 55 8z"/>
<path d="M7996 6143 c-12 -12 -5 -23 14 -23 11 0 20 4 20 9 0 11 -26 22 -34 14z"/>
</g>
</svg>