<svg xmlns="http://www.w3.org/2000/svg" version="1.0" width="4859.000000pt" height="2146.000000pt" viewBox="0 0 4859.000000 2146.000000" preserveAspectRatio="xMidYMid meet">
<metadata>
Created by potrace 1.16, written by Peter Selinger 2001-2019
</metadata>
<g transform="translate(0.000000,2146.000000) scale(0.100000,-0.100000)" fill="#000000" stroke="none">
<path d="M8695 21440 c-379 -33 -798 -125 -1099 -242 -429 -165 -911 -494 -1340 -912 -39 -38 -98 -92 -131 -120 -33 -28 -74 -65 -91 -83 -16 -17 -43 -35 -60 -39 -37 -9 -100 -40 -139 -68 -40 -29 -88 -41 -223 -57 l-113 -13 -62 61 c-34 33 -78 68 -97 78 -248 122 -327 133 -586 84 -55 -10 -256 -106 -398 -188 -49 -29 -144 -77 -210 -108 -67 -30 -139 -66 -161 -78 -22 -13 -139 -75 -260 -138 -121 -62 -287 -153 -370 -202 -102 -60 -213 -113 -345 -167 -319 -130 -421 -173 -485 -203 -16 -7 -64 -30 -106 -49 -42 -20 -79 -36 -82 -36 -4 0 -60 -25 -124 -56 -65 -31 -147 -70 -183 -86 -140 -64 -256 -120 -280 -134 -14 -8 -52 -28 -85 -44 -58 -28 -100 -52 -310 -167 -148 -82 -519 -331 -711 -477 -45 -34 -264 -257 -264 -268 0 -4 -13 -22 -29 -41 -17 -18 -40 -52 -53 -75 -13 -23 -44 -80 -71 -126 -26 -47 -47 -91 -47 -97 0 -7 -9 -26 -19 -43 -24 -39 -42 -87 -74 -196 -55 -186 -74 -341 -71 -576 2 -197 6 -257 23 -339 21 -97 85 -206 131 -220 14 -4 20 -15 20 -34 0 -26 82 -181 124 -232 11 -15 29 -39 38 -55 10 -16 32 -47 48 -69 17 -22 42 -58 57 -80 45 -68 169 -218 220 -266 71 -67 149 -115 218 -135 87 -24 268 -14 530 30 116 19 275 44 354 56 256 35 438 76 1096 244 210 54 275 59 679 52 388 -7 642 -19 773 -36 115 -14 364 -67 426 -90 29 -10 90 -28 137 -40 47 -11 162 -45 255 -75 225 -71 308 -93 407 -110 46 -8 126 -23 178 -34 52 -11 136 -23 185 -27 50 -3 144 -14 210 -24 66 -11 201 -22 300 -26 98 -4 193 -11 210 -16 16 -5 98 -16 180 -24 83 -8 188 -19 235 -24 157 -18 363 -32 600 -40 129 -5 314 -13 410 -19 96 -5 179 -7 183 -4 16 10 449 25 669 24 163 -1 228 -5 259 -16 24 -9 77 -15 125 -15 68 0 97 -5 156 -29 40 -16 88 -32 106 -36 17 -3 54 -22 81 -40 27 -19 80 -48 117 -65 76 -34 170 -96 314 -207 174 -134 242 -192 379 -325 75 -73 168 -160 206 -193 39 -33 126 -111 194 -174 68 -62 143 -127 166 -145 23 -17 75 -58 116 -91 40 -32 120 -92 177 -132 57 -40 145 -104 195 -142 51 -38 137 -95 192 -127 55 -31 127 -72 160 -91 125 -73 277 -143 485 -226 118 -46 232 -90 253 -97 35 -11 37 -14 37 -52 0 -22 7 -67 15 -100 24 -91 22 -196 -8 -343 -15 -71 -34 -164 -42 -205 -16 -79 -33 -162 -64 -320 -44 -220 -56 -324 -53 -459 3 -117 7 -146 34 -230 36 -115 65 -184 127 -311 l46 -95 -1 -140 c-1 -77 -11 -286 -24 -465 -26 -380 -24 -535 9 -620 21 -53 49 -168 91 -371 32 -156 29 -272 -12 -429 -39 -151 -41 -261 -3 -282 7 -5 28 -52 45 -105 40 -122 93 -213 162 -279 116 -112 213 -157 333 -158 64 0 89 4 124 23 37 19 47 21 72 11 16 -7 45 -34 64 -60 94 -128 273 -211 454 -210 110 1 186 39 240 121 49 76 74 199 39 199 -5 0 -31 -18 -56 -41 -58 -51 -85 -65 -142 -73 -57 -8 -106 6 -141 40 l-28 27 20 28 c29 41 38 105 23 174 -17 87 -99 293 -134 340 -132 176 -170 248 -170 320 l0 45 48 -35 c45 -32 109 -96 174 -173 19 -23 35 -32 56 -32 17 0 77 -11 134 -25 206 -50 331 -22 386 85 36 72 22 134 -19 83 -35 -42 -92 -73 -136 -73 -62 0 -83 14 -83 54 0 44 -43 120 -100 176 -25 25 -92 78 -150 117 -143 98 -181 132 -211 195 -14 29 -45 92 -68 139 -41 84 -41 86 -30 140 7 34 9 90 5 152 -6 93 -4 107 30 230 19 73 46 166 59 207 37 116 84 381 110 623 7 71 16 131 19 134 3 3 67 -35 143 -84 329 -215 881 -477 1136 -538 56 -14 113 -29 127 -34 175 -68 277 -108 335 -134 133 -57 438 -161 645 -218 63 -17 144 -40 180 -50 573 -161 909 -227 1352 -264 l77 -7 6 -40 c4 -22 2 -122 -5 -222 -10 -143 -10 -196 -1 -251 17 -99 52 -158 110 -187 45 -23 46 -26 49 -75 3 -44 0 -51 -19 -56 -31 -8 -59 6 -104 52 -21 23 -43 41 -48 41 -24 0 44 -170 102 -254 38 -55 79 -79 129 -74 l37 3 -3 -145 c-6 -236 25 -468 99 -750 66 -250 114 -389 324 -919 180 -456 258 -695 324 -988 109 -486 148 -853 138 -1293 -6 -263 -15 -322 -72 -435 -39 -79 -61 -155 -76 -265 -8 -62 -6 -94 10 -185 11 -60 25 -155 30 -210 6 -55 18 -136 27 -180 39 -198 -33 -692 -138 -942 -22 -54 -72 -145 -110 -202 -38 -57 -72 -111 -76 -120 -7 -19 -82 -118 -163 -214 -30 -37 -80 -111 -109 -164 -49 -89 -54 -105 -56 -166 -1 -39 -8 -77 -17 -90 -28 -42 -136 -142 -219 -203 -129 -94 -149 -104 -220 -108 -34 -3 -76 -10 -93 -17 -21 -9 -103 -14 -275 -15 -243 -2 -246 -3 -355 -34 -60 -18 -132 -44 -159 -58 -77 -41 -165 -136 -215 -233 -25 -46 -67 -111 -93 -144 -64 -79 -98 -152 -98 -210 0 -43 2 -47 33 -59 17 -7 72 -14 120 -14 83 -1 90 1 119 27 l32 28 22 -26 c21 -25 26 -26 190 -33 184 -8 664 -10 1909 -12 868 0 854 -1 915 50 60 51 65 204 11 425 -65 267 -71 301 -71 387 0 71 4 94 21 122 39 65 98 135 128 153 35 21 32 28 60 -119 24 -127 36 -153 102 -238 30 -38 79 -101 110 -140 67 -86 133 -142 217 -186 57 -30 92 -34 92 -11 0 5 -18 31 -40 57 -42 50 -114 183 -144 265 -17 45 -17 46 6 85 20 33 23 52 22 129 0 102 -13 151 -84 330 -62 157 -74 220 -67 353 9 170 15 184 279 669 63 117 137 261 163 320 26 59 87 187 135 283 102 203 146 331 161 467 12 108 7 165 -20 263 -10 36 -31 151 -45 255 -15 105 -36 246 -46 315 -11 69 -27 179 -35 245 -8 66 -20 163 -27 215 -16 125 -16 677 0 841 15 150 42 313 71 426 24 93 126 378 224 623 36 91 80 203 97 250 17 47 49 132 71 190 22 58 51 134 64 170 115 307 169 481 210 680 38 186 54 335 65 598 5 130 10 256 10 278 l0 42 78 17 c157 34 341 105 511 200 64 35 170 89 236 120 66 32 206 99 310 149 105 51 248 120 318 154 71 34 130 62 133 62 11 0 56 -108 74 -177 12 -43 34 -123 50 -178 43 -153 70 -286 81 -403 21 -226 29 -295 44 -360 8 -37 19 -96 25 -132 17 -97 54 -215 130 -410 87 -222 136 -327 251 -537 124 -226 232 -392 556 -858 186 -267 442 -656 500 -760 77 -137 151 -293 214 -453 81 -207 119 -349 169 -632 56 -319 57 -347 30 -640 -13 -144 -13 -230 0 -280 5 -19 16 -70 24 -113 10 -52 43 -141 94 -260 90 -205 122 -308 152 -482 11 -66 29 -169 40 -230 30 -178 40 -320 41 -567 0 -212 -4 -288 -37 -573 -4 -33 -13 -71 -20 -85 -24 -46 -51 -155 -43 -175 17 -44 10 -85 -18 -110 -16 -13 -32 -25 -36 -25 -4 0 -36 -13 -71 -29 -34 -17 -74 -33 -89 -36 -14 -4 -31 -13 -38 -21 -6 -8 -30 -14 -53 -14 -23 0 -59 -9 -81 -20 -22 -11 -45 -20 -53 -20 -17 0 -72 -28 -97 -50 -11 -10 -51 -25 -90 -34 -38 -9 -97 -23 -130 -32 -33 -8 -91 -19 -130 -23 -73 -8 -141 -26 -260 -68 -38 -13 -92 -28 -118 -33 -202 -37 -349 -129 -456 -288 -56 -84 -88 -156 -101 -235 -13 -75 -6 -98 40 -122 60 -31 93 -21 169 50 37 36 71 65 75 65 3 0 6 -16 6 -36 0 -25 8 -43 28 -63 25 -26 35 -28 132 -34 58 -4 337 -7 620 -8 283 -1 664 -2 845 -2 182 -1 467 -1 635 1 168 1 411 1 540 -1 267 -2 274 -1 326 74 25 37 29 50 27 107 -1 36 -6 83 -12 106 -6 23 -27 111 -46 196 -20 85 -50 200 -66 254 -35 113 -35 131 0 356 19 122 21 173 20 515 -1 303 2 403 15 495 9 63 23 167 32 230 9 63 22 158 29 210 8 52 28 194 45 315 46 331 59 411 82 520 18 86 20 119 14 245 -3 81 -11 162 -16 181 -6 20 -8 79 -4 144 6 97 4 124 -20 229 -15 66 -47 178 -72 250 -25 72 -59 174 -75 226 -17 52 -54 172 -84 265 -114 359 -174 609 -216 896 -28 197 -30 229 -26 404 6 225 31 442 88 775 23 135 45 268 50 295 48 282 72 765 50 1005 -30 323 -148 639 -376 1005 -103 165 -226 400 -254 484 -11 33 -27 76 -37 96 -14 30 -15 43 -5 74 16 55 14 182 -5 257 l-17 66 46 106 c75 173 211 527 256 662 42 130 96 327 126 465 20 91 30 115 49 115 8 0 36 18 62 40 27 22 53 40 59 40 5 0 145 68 310 151 329 166 395 193 850 344 349 116 394 132 660 238 546 217 1739 787 2115 1010 197 117 219 131 490 309 557 367 720 472 825 531 148 83 388 199 719 349 49 22 112 54 140 70 91 54 466 223 606 273 81 29 179 66 248 94 29 12 119 46 200 76 81 29 197 73 257 96 188 71 466 165 601 204 71 20 165 47 209 60 254 76 972 255 1110 276 33 5 103 16 156 24 53 8 168 25 255 39 231 37 581 84 719 96 66 6 183 18 260 27 227 24 420 41 427 37 4 -3 60 2 125 10 161 20 481 34 823 35 356 2 1340 -24 1714 -44 581 -32 692 -41 1116 -96 47 -6 114 -14 150 -18 70 -9 173 -24 315 -46 50 -8 104 -16 120 -19 17 -2 55 -9 85 -15 30 -6 71 -13 91 -15 20 -2 72 -11 115 -19 44 -8 124 -23 179 -32 55 -10 132 -24 170 -32 39 -7 102 -20 140 -27 157 -31 243 -49 290 -62 28 -8 77 -19 110 -24 33 -6 85 -17 115 -25 30 -8 65 -15 77 -15 13 0 51 -9 85 -19 35 -10 124 -33 198 -50 74 -18 149 -36 165 -41 17 -4 59 -16 95 -25 36 -9 101 -28 145 -41 44 -13 96 -27 115 -30 19 -4 67 -17 105 -29 39 -13 165 -54 280 -90 116 -37 236 -78 268 -91 32 -13 66 -24 75 -24 9 0 31 -7 47 -16 17 -9 62 -26 100 -39 39 -13 113 -40 165 -60 52 -20 127 -47 165 -61 39 -14 85 -32 103 -40 18 -9 56 -24 85 -34 29 -10 78 -30 110 -44 32 -14 63 -26 69 -26 6 0 38 -13 72 -29 34 -15 79 -34 100 -41 22 -7 53 -21 70 -31 17 -10 51 -25 75 -34 24 -8 73 -29 110 -46 36 -18 104 -49 151 -71 47 -22 101 -49 120 -59 19 -11 55 -29 80 -40 25 -11 56 -26 70 -34 14 -8 48 -26 76 -39 28 -13 72 -38 99 -55 27 -17 55 -31 63 -31 7 0 28 -11 45 -24 18 -13 55 -35 82 -49 70 -34 128 -67 217 -120 42 -26 81 -47 86 -47 5 0 16 -7 23 -16 8 -9 32 -25 54 -34 22 -10 49 -27 59 -39 11 -11 25 -21 31 -21 7 0 29 -13 50 -30 21 -16 43 -30 50 -30 6 0 20 -9 31 -21 10 -12 37 -30 59 -41 22 -12 55 -32 72 -47 18 -14 48 -38 67 -53 18 -16 37 -28 41 -28 4 0 27 -17 51 -37 66 -58 107 -89 134 -103 14 -7 27 -16 30 -20 30 -38 100 -51 138 -24 39 27 24 83 -51 180 -90 117 -406 404 -629 571 -24 18 -63 48 -88 68 -25 19 -69 52 -99 72 -29 21 -66 47 -82 58 -447 321 -1013 644 -1849 1057 -877 433 -1496 685 -2485 1013 -935 309 -1262 406 -2035 600 -287 72 -749 183 -800 192 -14 2 -54 11 -90 19 -36 7 -144 30 -240 51 -96 20 -213 44 -260 55 -347 76 -946 196 -1145 229 -33 5 -80 14 -105 19 -25 5 -84 16 -132 25 -48 8 -97 16 -110 19 -142 29 -512 90 -813 136 -77 12 -173 28 -213 36 -40 7 -86 14 -103 14 -17 0 -68 7 -113 15 -72 13 -187 30 -271 39 -16 2 -68 9 -115 15 -168 24 -226 30 -310 37 -47 3 -137 12 -200 21 -63 8 -158 19 -210 24 -126 12 -246 25 -410 44 -396 46 -717 71 -1165 90 -503 23 -1766 27 -2085 7 -107 -7 -321 -14 -475 -17 -154 -3 -334 -9 -400 -15 -261 -22 -374 -32 -460 -41 -49 -5 -155 -13 -235 -19 -80 -5 -183 -14 -230 -20 -177 -20 -534 -23 -750 -6 -113 9 -266 21 -340 27 -74 5 -164 14 -200 20 -36 5 -96 14 -135 20 -211 30 -652 155 -920 261 -120 47 -324 145 -610 291 -115 59 -270 137 -342 172 -73 35 -159 82 -192 104 -32 22 -119 70 -192 105 -74 36 -166 84 -205 108 -100 61 -194 116 -304 178 -52 30 -120 69 -150 89 -139 88 -304 194 -375 241 -160 107 -353 219 -524 305 -106 53 -152 73 -351 153 -131 53 -293 111 -358 127 -34 9 -73 20 -85 25 -32 13 -234 65 -352 90 -55 12 -146 33 -201 46 -56 13 -110 24 -120 24 -11 0 -48 7 -84 15 -75 17 -353 74 -515 105 -60 12 -141 30 -180 40 -38 11 -97 24 -130 29 -33 6 -134 24 -225 40 -91 17 -232 42 -315 56 -82 14 -172 29 -200 35 -27 5 -75 12 -105 15 -54 5 -91 10 -335 40 -203 25 -598 48 -975 56 -453 11 -1340 -8 -1545 -32 -221 -26 -409 -51 -486 -65 -46 -8 -120 -21 -164 -29 -44 -8 -129 -24 -190 -35 -248 -49 -313 -61 -375 -70 -115 -16 -244 -38 -290 -48 -25 -6 -101 -22 -170 -37 -69 -15 -179 -43 -245 -62 -66 -19 -142 -41 -170 -48 -67 -18 -427 -154 -545 -205 -85 -38 -486 -234 -600 -295 -25 -13 -81 -41 -125 -63 -44 -21 -104 -56 -134 -78 -30 -21 -85 -57 -122 -79 -38 -22 -126 -76 -196 -119 -71 -43 -171 -105 -223 -137 -52 -31 -117 -72 -145 -90 -76 -50 -183 -108 -250 -135 -33 -14 -83 -40 -110 -58 -28 -18 -85 -49 -125 -68 -41 -19 -106 -56 -144 -81 -38 -26 -71 -47 -73 -47 -7 0 -138 -57 -223 -97 -41 -20 -116 -48 -166 -64 l-91 -29 -73 25 c-40 14 -94 37 -119 53 -25 15 -62 36 -81 47 -19 10 -109 80 -199 154 -244 203 -287 240 -391 334 -191 174 -501 444 -609 532 -230 185 -682 503 -881 620 -186 108 -255 147 -360 199 -63 32 -128 66 -145 76 -16 10 -77 38 -135 63 -309 131 -454 185 -710 262 -85 25 -182 55 -216 65 -117 37 -363 87 -604 125 -185 29 -479 40 -655 25z m9586 -12223 l-18 -42 -12 45 c-7 25 -14 51 -17 59 -2 7 -6 43 -9 80 l-5 66 39 -83 40 -83 -18 -42z m-4963 -999 c7 -7 12 -19 12 -27 1 -9 9 -34 20 -56 28 -59 26 -77 -7 -69 -47 11 -103 47 -108 69 -14 57 -11 67 25 80 46 17 44 17 58 3z"/>
</g>
</svg>