<svg xmlns="http://www.w3.org/2000/svg" version="1.0" width="2360.000000pt" height="1328.000000pt" viewBox="0 0 2360.000000 1328.000000" preserveAspectRatio="xMidYMid meet">
<metadata>
Created by potrace 1.16, written by Peter Selinger 2001-2019
</metadata>
<g transform="translate(0.000000,1328.000000) scale(0.100000,-0.100000)" fill="#000000" stroke="none">
<path d="M633 13195 c-125 -25 -201 -74 -380 -248 -188 -184 -200 -204 -188 -314 10 -94 26 -123 69 -123 18 0 51 8 72 17 22 9 46 18 54 19 8 2 33 10 55 18 22 8 50 15 62 16 12 0 24 4 27 9 3 5 18 11 33 14 16 3 59 16 96 30 37 15 74 24 82 21 16 -7 45 -64 45 -91 0 -18 -73 -97 -97 -104 -20 -7 -180 -148 -243 -215 -62 -67 -72 -94 -49 -136 15 -28 86 -58 141 -58 44 0 51 4 100 53 98 97 298 194 452 218 87 14 251 5 326 -17 71 -21 220 -93 293 -142 133 -88 323 -278 544 -542 548 -657 683 -836 1208 -1609 345 -508 669 -1037 1218 -1991 374 -650 490 -830 952 -1478 243 -340 327 -455 370 -507 23 -27 86 -108 140 -180 54 -71 167 -213 250 -315 83 -102 191 -237 240 -300 49 -63 97 -122 106 -130 9 -8 42 -48 74 -88 32 -40 63 -76 69 -80 22 -14 132 -188 170 -267 78 -165 112 -394 84 -550 -15 -82 -15 -103 3 -265 14 -125 35 -212 64 -270 35 -70 164 -226 251 -305 l77 -69 -6 -111 c-3 -60 -13 -155 -21 -210 -18 -122 -24 -205 -36 -445 l-8 -186 -52 -83 c-83 -134 -148 -284 -224 -521 -64 -197 -129 -320 -260 -493 -43 -57 -85 -163 -95 -239 -9 -71 -52 -204 -104 -318 -15 -33 -50 -81 -89 -121 -104 -105 -100 -137 22 -177 91 -30 400 -123 428 -129 46 -11 123 94 109 148 -12 46 92 385 124 405 12 7 160 229 267 399 157 252 258 404 347 530 144 202 155 230 175 440 6 66 17 147 25 180 8 33 21 92 30 130 8 39 23 95 31 125 l16 55 35 -70 c19 -38 82 -156 139 -261 95 -175 104 -195 104 -245 1 -122 48 -391 97 -547 29 -94 28 -61 36 -912 l2 -155 -43 -97 c-45 -104 -51 -141 -27 -175 17 -24 93 -53 140 -53 17 0 36 -5 42 -11 7 -7 17 -8 29 -1 11 5 84 10 164 11 79 2 153 7 162 12 50 27 61 104 40 294 -10 93 -10 129 3 230 9 66 25 148 35 183 31 99 42 383 34 892 -3 245 -10 459 -14 475 -5 17 -29 77 -54 134 -26 57 -45 105 -44 107 2 1 37 -13 78 -33 204 -95 381 -158 597 -213 305 -78 557 -89 973 -45 129 14 235 25 235 25 0 0 1 -59 2 -131 2 -117 28 -392 52 -563 12 -81 53 -225 100 -350 60 -156 71 -203 71 -290 0 -119 -30 -213 -104 -329 -52 -81 -69 -89 -197 -98 -61 -4 -115 -12 -122 -17 -7 -5 -30 -13 -53 -16 -22 -4 -55 -16 -72 -26 -42 -26 -109 -113 -121 -158 -14 -49 -2 -60 45 -43 37 13 45 10 57 -24 2 -5 16 1 32 13 28 22 51 30 40 13 -8 -14 29 -23 56 -13 18 7 33 4 59 -9 32 -18 63 -19 441 -19 378 0 407 1 414 18 7 18 8 339 1 351 -3 4 -10 81 -16 171 -10 149 -10 183 9 354 13 110 38 260 60 360 53 231 62 294 70 481 6 134 11 166 28 200 24 46 17 55 67 -83 36 -101 40 -106 120 -192 40 -41 104 -113 143 -160 178 -211 232 -254 504 -396 112 -58 225 -120 252 -136 78 -50 153 -141 214 -263 31 -60 73 -136 95 -167 l40 -57 -17 -73 c-32 -141 -35 -159 -35 -209 0 -60 24 -110 78 -163 39 -37 40 -38 51 -17 7 12 8 21 4 21 -4 0 3 6 17 13 14 7 27 23 28 37 2 13 10 29 17 35 7 5 15 22 19 37 4 20 16 30 43 38 112 36 244 130 303 215 52 76 92 215 80 280 -4 23 -24 44 -86 90 -139 104 -255 204 -389 339 -125 126 -135 139 -239 316 -59 102 -124 212 -144 245 -58 97 -146 215 -212 285 l-62 64 6 71 c3 38 8 177 12 307 6 206 9 238 23 243 161 66 314 101 496 111 110 7 166 4 785 -41 343 -26 709 -52 1185 -85 699 -48 1279 -56 1628 -22 323 32 874 109 1092 154 239 48 331 69 390 87 163 50 894 170 1140 186 255 18 961 -90 1380 -210 217 -62 541 -179 1045 -378 324 -127 695 -306 842 -405 40 -27 125 -80 188 -117 63 -38 248 -157 410 -265 357 -238 336 -227 361 -204 10 9 19 25 19 34 0 48 -594 505 -870 671 -300 179 -699 386 -1030 534 -107 48 -262 118 -345 155 -747 337 -784 351 -1259 455 -397 87 -600 108 -1046 109 -358 1 -357 1 -890 -65 -587 -73 -1094 -76 -1705 -8 -323 35 -608 115 -1150 324 -176 68 -387 148 -470 179 -82 31 -166 63 -185 71 -344 141 -987 362 -1295 445 -541 146 -790 226 -1217 394 -64 25 -161 61 -215 80 -718 256 -1098 436 -2273 1081 -113 62 -290 159 -395 215 -194 105 -420 234 -625 356 -159 95 -795 547 -1025 728 -365 287 -550 453 -895 802 -323 327 -719 771 -1147 1284 -282 339 -997 1187 -1167 1385 -317 368 -414 473 -756 816 -432 433 -708 662 -1119 934 -234 154 -286 185 -556 333 -209 114 -312 159 -568 246 -105 36 -285 76 -344 76 -26 1 -77 7 -113 15 -78 17 -212 17 -297 0z"/>
</g>
</svg>