<svg xmlns="http://www.w3.org/2000/svg" version="1.0" width="1536.000000pt" height="689.000000pt" viewBox="0 0 1536.000000 689.000000" preserveAspectRatio="xMidYMid meet">
<metadata>
Created by potrace 1.16, written by Peter Selinger 2001-2019
</metadata>
<g transform="translate(0.000000,689.000000) scale(0.100000,-0.100000)" fill="#000000" stroke="none">
<path d="M382 6876 c-57 -19 -75 -36 -137 -131 -29 -44 -80 -114 -114 -155 -33 -41 -61 -80 -61 -86 0 -6 -14 -30 -31 -54 -36 -49 -52 -147 -29 -175 28 -34 138 -10 192 41 l26 26 7 -22 c4 -12 5 -23 3 -25 -15 -13 -130 -65 -156 -70 -17 -4 -32 -12 -32 -18 0 -20 50 -87 64 -87 7 0 38 11 67 24 30 13 108 39 174 57 110 30 131 33 260 33 210 -1 340 -36 580 -154 362 -179 780 -486 1112 -818 82 -81 261 -276 398 -432 636 -723 1032 -1141 1596 -1686 169 -163 189 -186 222 -254 20 -41 49 -130 66 -197 43 -175 80 -240 208 -370 l76 -77 72 -426 c73 -423 73 -427 59 -493 -16 -78 -50 -328 -59 -442 -8 -99 -34 -212 -76 -330 -29 -83 -32 -105 -40 -270 -4 -99 -11 -195 -15 -213 -12 -59 -1 -62 185 -62 91 0 171 4 178 8 7 5 11 51 10 147 -1 161 -1 161 128 455 40 91 84 203 99 250 15 47 39 116 53 154 l26 70 44 -149 c31 -109 46 -180 53 -264 6 -64 12 -138 15 -165 2 -26 27 -106 55 -177 28 -70 55 -154 61 -186 12 -64 23 -83 49 -83 28 0 304 119 317 137 10 13 4 31 -31 102 -70 139 -71 149 -71 486 0 165 -4 370 -8 455 -9 161 -16 193 -102 488 -32 111 -32 113 -11 108 160 -39 458 -81 654 -92 143 -8 130 14 106 -187 -12 -95 -15 -171 -10 -272 8 -192 24 -257 90 -374 130 -227 195 -420 184 -543 -7 -72 -61 -133 -136 -153 -138 -38 -196 -87 -217 -183 -7 -33 2 -41 24 -19 11 9 14 9 18 0 3 -10 10 -10 25 -2 12 7 23 7 27 2 12 -18 358 -16 466 2 190 32 207 47 187 161 -70 405 -65 355 -66 799 -1 322 2 416 12 438 7 16 15 27 18 25 2 -3 18 -52 35 -109 38 -127 89 -247 160 -376 46 -82 80 -125 223 -277 137 -146 175 -193 202 -250 37 -77 42 -121 19 -166 -12 -23 -28 -33 -83 -49 -129 -39 -201 -108 -202 -194 0 -23 3 -26 18 -19 9 5 23 7 30 5 7 -3 19 1 27 7 12 10 15 9 15 -4 0 -10 5 -14 10 -11 6 4 133 6 283 6 264 -2 273 -1 317 21 38 20 45 28 48 57 2 19 -8 65 -22 105 -14 39 -41 124 -61 189 -19 65 -53 159 -74 210 -21 51 -71 191 -111 312 -78 238 -116 337 -156 418 l-26 51 21 375 c12 207 25 379 29 382 4 3 37 18 75 33 61 23 80 26 200 26 107 0 160 -6 282 -31 236 -47 591 -140 1100 -286 678 -195 718 -206 989 -278 620 -165 805 -197 1355 -235 241 -16 397 -20 860 -20 311 0 620 -5 686 -10 827 -71 1460 -460 1768 -1086 29 -61 59 -126 66 -144 9 -26 14 -31 23 -22 28 28 -30 199 -121 364 -228 409 -609 728 -1101 921 -336 132 -544 176 -1334 287 -1035 146 -1254 189 -1676 330 -794 265 -1643 663 -2326 1091 -94 59 -289 172 -435 252 -145 79 -330 181 -411 225 -405 223 -627 304 -1178 427 -743 166 -1354 367 -2051 675 -256 113 -436 212 -699 382 -222 143 -738 506 -1050 738 -483 359 -669 484 -983 659 -417 233 -779 374 -1107 432 -151 27 -436 35 -498 15z"/>
</g>
</svg>